<svg aria-hidden="true" style="width:0;height:0;position:absolute;overflow:hidden" xmlns="http://www.w3.org/2000/svg"><defs><symbol id="up-arrow" viewBox="0 0 32 32"><path d="M17.028 10.123a1.45 1.45 0 0 0-2.057 0l-7.757 7.758a1.455 1.455 0 0 0 2.057 2.057L16 13.209l6.729 6.729a1.45 1.45 0 0 0 2.056 0 1.455 1.455 0 0 0 0-2.057l-7.758-7.758z"/><path d="M16 0C7.178 0 0 7.178 0 16s7.178 16 16 16 16-7.178 16-16S24.822 0 16 0zm0 29.091C8.782 29.091 2.909 23.218 2.909 16S8.782 2.909 16 2.909 29.091 8.782 29.091 16 23.218 29.091 16 29.091z"/></symbol></defs></svg>