<svg aria-hidden="true" style="position: absolute; width: 0; height: 0; overflow: hidden;" version="1.1" xmlns="http://www.w3.org/2000/svg" xmlns:xlink="http://www.w3.org/1999/xlink">
<defs>
<symbol id="up-arrow" viewBox="0 0 32 32">
      <path d="M17.028 10.123c-0.263-0.263-0.627-0.426-1.028-0.426s-0.765 0.163-1.029 0.426l-7.757 7.758c-0.568 0.568-0.568 1.489 0 2.057s1.489 0.568 2.057-0l6.729-6.729 6.729 6.729c0.284 0.284 0.656 0.426 1.028 0.426s0.745-0.142 1.028-0.426c0.568-0.568 0.568-1.489 0-2.057l-7.758-7.758z"></path>
      <path d="M16 0c-8.822 0-16 7.178-16 16s7.178 16 16 16 16-7.178 16-16-7.178-16-16-16zM16 29.091c-7.218 0-13.091-5.873-13.091-13.091s5.873-13.091 13.091-13.091 13.091 5.873 13.091 13.091-5.873 13.091-13.091 13.091z"></path>
</symbol>
</defs>
</svg>
